<svg xmlns="http://www.w3.org/2000/svg" fill="none" viewBox="0 0 14 14" id="Dashboard-Circle-Horizontal-Pill-2--Streamline-Flex-Gradient.svg" height="14" width="14" stroke-width="1"><desc>Dashboard Circle Horizontal Pill 2 Streamline Icon: https://streamlinehq.com</desc><g id="dashboard-circle-horizontal-pill-2"><g id="Union"><path fill="url(#paint0_linear_7701_14597)" d="M8.57278 1.04251c-.54144.54144-.79251 1.30516-.79251 2.19235 0 .88719.25107 1.65091.79251 2.19236.54145.54144 1.30517.79251 2.19232.79251.8872 0 1.6509-.25107 2.1924-.79251.5414-.54145.7925-1.30517.7925-2.19236 0-.88719-.2511-1.65091-.7925-2.19235C12.416.50107 11.6523.25 10.7651.25c-.88715 0-1.65087.25107-2.19232.79251Z"></path><path fill="url(#paint1_linear_7701_14597)" d="M.25 10.5159c0-.90067.240103-1.6781.75677-2.24423.51953-.56926 1.26035-.86099 2.13189-.90172 2.51679-.11762 5.20583-.11762 7.72264 0 .8715.04073 1.6123.33246 2.1319.90172.5166.56613.7567 1.34356.7567 2.24423 0 .9007-.2401 1.6782-.7567 2.2443-.5196.5693-1.2604.861-2.1319.9017-2.51681.1176-5.20584.1176-7.72264 0-.87153-.0407-1.61235-.3324-2.13188-.9017C.490104 12.1941.25 11.4166.25 10.5159Z"></path><path fill="url(#paint2_linear_7701_14597)" d="M.25 3.23486c0-.88719.25107-1.65091.79251-2.19235C1.58395.50107 2.34767.25 3.23486.25c.88719 0 1.65091.25107 2.19236.79251.54144.54144.79251 1.30516.79251 2.19235 0 .88719-.25107 1.65091-.79251 2.19236-.54145.54144-1.30517.79251-2.19236.79251-.88719 0-1.65091-.25107-2.19235-.79251C.50107 4.88578.25 4.12205.25 3.23486Z"></path></g></g><defs><linearGradient id="paint0_linear_7701_14597" x1="13.704" x2="-2.283" y1="13.753" y2="4.76" gradientUnits="userSpaceOnUse"><stop stop-color="#ff44f8"></stop><stop offset="1" stop-color="#1b4dff"></stop></linearGradient><linearGradient id="paint1_linear_7701_14597" x1="13.704" x2="-2.283" y1="13.753" y2="4.76" gradientUnits="userSpaceOnUse"><stop stop-color="#ff44f8"></stop><stop offset="1" stop-color="#1b4dff"></stop></linearGradient><linearGradient id="paint2_linear_7701_14597" x1="13.704" x2="-2.283" y1="13.753" y2="4.76" gradientUnits="userSpaceOnUse"><stop stop-color="#ff44f8"></stop><stop offset="1" stop-color="#1b4dff"></stop></linearGradient></defs></svg>